<?xml version="1.0" encoding="utf-8"?>
<!-- Generator: Adobe Illustrator 23.1.0, SVG Export Plug-In . SVG Version: 6.00 Build 0)  -->
<svg version="1.1" id="Layer_1" xmlns="http://www.w3.org/2000/svg" xmlns:xlink="http://www.w3.org/1999/xlink" x="0px" y="0px"
	 viewBox="0 0 322 180" style="enable-background:new 0 0 322 180;" xml:space="preserve">
<style type="text/css">
	.st0{fill:#87C538;}
	.st1{fill:#33302D;}
	.st2{opacity:0.99;}
	.st3{enable-background:new    ;}
	.st4{clip-path:url(#SVGID_4_);}
</style>
<image style="display:none;overflow:visible;" width="348" height="222" xlink:href="photo_2021-01-20_21-23-00.jpg"  transform="matrix(1 0 0 1 -61.0545 -19.6326)">
</image>
<path class="st0" d="M140.3,85.2c0,0,8,1.6,18-1.6c3.1-1,9.9-3.3,15.9-9.5c7.5-7.7,9.2-16.7,10-21.3c1.1-6.1,2.6-14.9-2.3-23.9
	c-6.6-12-19.6-14.7-21.4-15.1c-2.2-0.4-14.8-2.8-25.1,5.9c-7.4,6.3-9.1,14.7-9.6,17.6c-1.1,6.1-0.1,10.9,0.4,13.1
	c0.7,3.3,2,9.1,7,14.3c0.9,1,6,6.2,14.3,7.7c14.2,2.6,24.9-8.2,25.9-9.2c-0.1,1.1-0.3,2.6-1,4.3c-3.3,8-13.5,11.1-19.2,11.7
	c-12.8,1.3-24.4-8-30.1-16.7c-11.7-17.7-2.9-37.8-2.4-38.9c1-2.3,8.9-18.6,27.2-22.7C161-2,171.5,3,174.9,4.8
	c10.8,5.8,15.5,14.9,17,17.9c7.6,15.3,3.4,30,2.2,33.8c-1.1,3.7-4.8,15.6-15.7,23.1C162.2,90.8,140.3,85.2,140.3,85.2z"/>
<path class="st1" d="M149.3,71.8c-3.1-1.6-4.3-4.5-6-8.4c-4.9-11.5-3.2-26.3,4.8-32.8c1.2-0.9,3.3-2.7,6.1-2.5c5.2,0.3,9,7.1,9.5,8
	c0.2,0.4,0.4,0.8,0.5,1.1c4.5,0,8.2,0.3,10.8,0.7c2,0.3,3.1,0.5,4,1.2c3,2.2,2.9,7,2.8,8.5C181.7,59.7,160.2,77.3,149.3,71.8z"/>
<g>
	<g>
		<g>
			<g>
				<g>
					<defs>
						<path id="SVGID_1_" d="M1,159.1c0-38.6,0-77.2,0-115.8c103.1,50,217.6,50,320.6,0c0,38.6,0,77.2,0,115.8
							C218.5,209.1,104,209.1,1,159.1z"/>
					</defs>
					<clipPath id="SVGID_2_">
						<use xlink:href="#SVGID_1_"  style="overflow:visible;"/>
					</clipPath>
				</g>
			</g>
		</g>
	</g>
	<g>
		<g class="st2">
			<g>
				<g class="st3">
					<defs>
						<path id="SVGID_3_" class="st3" d="M1,159.1c0-38.6,0-77.2,0-115.8c103.1,50,217.6,50,320.6,0c0,38.6,0,77.2,0,115.8
							C218.5,209.1,104,209.1,1,159.1z"/>
					</defs>
					<clipPath id="SVGID_4_">
						<use xlink:href="#SVGID_3_"  style="overflow:visible;"/>
					</clipPath>
					<g class="st4">
						<path class="st1" d="M52.7,64.7c-15.7-5-31-11.3-45.9-18.5c-1.6-0.8-3-0.8-4.1-0.2C1.6,46.6,1,47.9,1,49.6
							c0,26.8,0,53.6,0,80.4c0,1.8,0.6,3.7,1.8,5.5c1.1,1.7,2.5,2.9,4,3.7c1.6,0.8,3,0.8,4,0.2c1.1-0.7,1.7-1.9,1.7-3.7
							c0-24.8,0-49.7,0-74.5C25.7,66.9,39,72.1,52.7,76.8c1.5,0.5,2.9,0.4,4.1-0.2c1.3-0.7,2-2,2-3.6c0-1.8-0.6-3.5-1.8-5.1
							c0,0,0,0,0,0C55.8,66.3,54.3,65.2,52.7,64.7"/>
						<path class="st1" d="M50.4,130.4c0,0.4,0,0.5,0,0.9c0.2,0.3,0.3,0.5,0.5,0.9C50.7,131.5,50.5,130.9,50.4,130.4"/>
						<path class="st1" d="M50.8,132.1c-0.2-0.3-0.3-0.5-0.5-0.9c0-0.4,0-0.5,0-0.9C50.5,130.9,50.7,131.5,50.8,132.1 M78.4,153.5
							c-3.8-0.9-7.3-2.7-10.6-5.4c-3.3-2.7-6-5.9-8.1-9.6c-2.1-3.7-3.4-7.3-3.8-11.2c-0.1-0.5-0.1-0.7-0.1-1.2c0-0.3-0.1-1-0.1-2.3
							c0-4.3,1-7.8,3-10.8c2-3,4.8-5,8.2-6.1c3.5-1.1,7.2-1.2,11.4-0.1c4.3,1,8.2,2.9,11.7,5.7c3.6,2.8,6.3,6.1,8.4,10.1
							c2.1,4,3.1,8,3.1,12.3c0,4.2-1,7.9-3.1,11.1c-2,3.2-4.8,5.5-8.4,6.9C86.6,154.4,82.7,154.6,78.4,153.5 M78.7,94.8
							c-6.3-1.5-12.2-1.5-17.5,0.1c-5.3,1.6-9.5,4.6-12.6,8.9c-3.1,4.4-4.7,9.8-4.7,16.3c0,17.1,0,34.2,0,51.2c0,1.7,0.6,3.4,1.8,5
							c1.2,1.6,2.6,2.7,4.1,3.2c1.8,0.6,3.3,0.4,4.4-0.5c1.1-0.8,1.6-2.2,1.6-3.8c0-9.8,0-14.6,0-24.4c1.9,2.3,4.1,4.5,6.4,6.4
							c5,4.2,10.5,7.1,16.3,8.5c6.3,1.5,12.2,1.1,17.6-1.1c5.4-2.2,9.7-5.9,12.8-10.8c3.1-5,4.7-10.7,4.7-17
							c0-6.4-1.6-12.6-4.7-18.5c-3.1-5.9-7.5-10.9-12.8-15.1C90.9,99.1,85,96.3,78.7,94.8"/>
						<path class="st1" d="M129.2,131.8c0.6-2.4,1.6-4.5,3-6.5c2-2.9,4.7-5.1,7.8-6.7c3.1-1.5,6.7-2.3,10.6-2.1
							c3.7,0.1,6.9,1,9.9,2.8c3.1,1.8,5.5,4.2,7.3,7.3c1.2,2.1,2.1,4.2,2.5,6.5C156.7,133.5,142.9,133.1,129.2,131.8 M150.4,104.4
							c-6.5-0.2-12.5,1-17.8,3.8c-5.2,2.7-9.3,6.6-12.3,11.7c-3,5-4.5,10.8-4.5,17.2c0,6.5,1.5,12.7,4.4,18.4
							c3,5.8,7.1,10.6,12.3,14.2c5.2,3.6,11.2,5.6,17.8,5.8c5.5,0.2,10.4-0.7,14.5-2.6c4.1-1.8,7.5-4.6,10.2-7.7
							c1.2-1.4,1.9-3,1.9-4.7c0-1.6-0.6-3-1.6-4c-1.5-1.4-3.1-1.7-4.1-1.6c-1.2,0-3.1,0.5-4.9,2.3c0,0,0,0-0.1,0.1
							c-3.9,4.2-9,6.2-15.7,6c-4-0.1-7.6-1.2-10.9-3.3c-3.2-2.1-5.9-4.9-8-8.4c-1.4-2.4-2.4-5.1-3-7.9c15.9,1.4,32,1.9,48,1.2
							c1.9-0.1,3.5-1,4.6-2.5c0.9-1.2,1.3-2.8,1.3-4.6c0-5.9-1.4-11.4-4-16.4c-2.7-5-6.6-9.1-11.5-12.1
							C162.2,106.2,156.6,104.6,150.4,104.4"/>
						<path class="st1" d="M245.3,95.2c-1.7,0.4-3.2,1.4-4.4,3c-1.1,1.4-1.7,3.1-1.7,4.7c0,5.8,0,8.7,0,14.6c0,3.8-0.9,7.5-2.8,11.2
							c-1.9,3.7-4.4,6.8-7.8,9.4c-3.3,2.6-6.8,4.2-10.7,4.8c-3.8,0.6-7,0.2-10-1.3c-3-1.5-5.3-3.7-6.9-6.7c-1.7-3-2.5-6.4-2.5-10.2
							c0-6,0-9,0-15c0-1.6-0.6-3.1-1.7-4.2c-1.2-1.1-2.8-1.7-4.6-1.5c-1.7,0.2-3.3,0.9-4.5,2.3c-1.1,1.3-1.7,2.8-1.7,4.4
							c0,5.5,0,8.3,0,13.8c0,6.3,1.3,11.9,3.9,16.8c2.7,4.9,6.4,8.7,11.2,11.2c4.8,2.5,10.4,3.3,16.4,2.3c6.5-1.1,12.4-4.1,17.4-9
							c1.5-1.5,2.9-3,4.1-4.6c0,7.3,0,10.9,0,18.2c0,1.7,0.6,3.1,1.7,4.1c1.2,1,2.7,1.3,4.4,0.9c1.7-0.4,3.2-1.4,4.3-2.9
							c1.2-1.5,1.8-3.3,1.8-5c0-18.8,0-37.7,0-56.5c0-1.7-0.6-3-1.8-3.9c0,0,0,0,0,0C248.5,95.1,247,94.8,245.3,95.2"/>
						<path class="st1" d="M288.4,139.7c-4.1,1.6-7.8,1.9-11.2,0.9c-3.5-0.9-6.2-2.9-8.2-5.8c-2-2.9-3-6.4-3-10.6
							c0-4.3,1-8.5,3-12.7c2-4.2,4.8-8,8.2-11.3c3.4-3.3,7.2-5.7,11.3-7.2c4.1-1.6,7.9-2.1,11.2-1.4c3.4,0.7,5.9,2.3,7.9,5
							c1.9,2.7,2.9,6.1,2.9,10.5c0,0.5,0,0.8,0,1.4c-0.1,0.6-0.1,1-0.2,1.6c0,0.3,0,0.4,0,0.7c-0.5,3.8-1.8,7.8-3.8,11.6
							c-2,3.9-4.6,7.5-7.8,10.6C295.5,136,292.1,138.3,288.4,139.7 M288.4,80.9c-6.1,2.4-11.9,6-17.1,10.9
							c-5.2,4.9-9.5,10.5-12.5,16.8c-3.1,6.3-4.6,12.7-4.6,19.1c0,6.4,1.5,12,4.6,16.5c3,4.5,7.2,7.6,12.3,9.1
							c5.2,1.5,10.9,1.2,16.9-1.2c6-2.3,11.5-6.1,16.3-11.1c2.2-2.3,4.1-4.7,5.9-7.2c0,0.7,0,1,0,1.6c0,1.7,0.6,3,1.6,3.7
							c1.1,0.8,2.5,0.8,4.1,0c1.5-0.7,2.9-2,4-3.7c0.8-1.2,1.8-3.2,1.8-5.6c0-9.4,0-18.8,0-28.2c0-6.4-1.5-11.6-4.4-15.6
							c-2.9-4-6.9-6.4-12-7.3C300.2,77.8,294.5,78.5,288.4,80.9"/>
					</g>
				</g>
			</g>
		</g>
	</g>
	<g>
		<g>
			<g>
				<g>
					<defs>
						<path id="SVGID_5_" d="M1,159.1c0-38.6,0-77.2,0-115.8c103.1,50,217.6,50,320.6,0c0,38.6,0,77.2,0,115.8
							C218.5,209.1,104,209.1,1,159.1z"/>
					</defs>
					<clipPath id="SVGID_6_">
						<use xlink:href="#SVGID_5_"  style="overflow:visible;"/>
					</clipPath>
				</g>
			</g>
		</g>
	</g>
</g>
</svg>
